%TF.GenerationSoftware,KiCad,Pcbnew,(5.1.10)-1*%
%TF.CreationDate,2021-09-02T19:06:41+08:00*%
%TF.ProjectId,nodemcu_board,6e6f6465-6d63-4755-9f62-6f6172642e6b,rev?*%
%TF.SameCoordinates,Original*%
%TF.FileFunction,Soldermask,Top*%
%TF.FilePolarity,Negative*%
%FSLAX46Y46*%
G04 Gerber Fmt 4.6, Leading zero omitted, Abs format (unit mm)*
G04 Created by KiCad (PCBNEW (5.1.10)-1) date 2021-09-02 19:06:41*
%MOMM*%
%LPD*%
G01*
G04 APERTURE LIST*
%ADD10C,3.200000*%
%ADD11C,1.600000*%
%ADD12R,1.600000X1.600000*%
%ADD13C,1.200000*%
%ADD14O,2.000000X1.700000*%
%ADD15O,1.700000X1.700000*%
%ADD16R,1.700000X1.700000*%
%ADD17C,1.524000*%
%ADD18R,0.450000X1.380000*%
%ADD19R,1.425000X1.550000*%
%ADD20R,1.650000X1.300000*%
%ADD21R,1.800000X1.900000*%
%ADD22R,1.000000X1.900000*%
G04 APERTURE END LIST*
D10*
%TO.C,REF\u002A\u002A*%
X121920000Y-64770000D03*
%TD*%
%TO.C,REF\u002A\u002A*%
X163830000Y-64770000D03*
%TD*%
%TO.C,REF\u002A\u002A*%
X121920000Y-124460000D03*
%TD*%
%TO.C,REF\u002A\u002A*%
X163830000Y-124460000D03*
%TD*%
D11*
%TO.C,C1*%
X133096000Y-122388000D03*
D12*
X133096000Y-124888000D03*
%TD*%
D13*
%TO.C,D1*%
X164306000Y-101088000D03*
D14*
X162306000Y-96988000D03*
G36*
G01*
X163056000Y-100338000D02*
X161556000Y-100338000D01*
G75*
G02*
X161306000Y-100088000I0J250000D01*
G01*
X161306000Y-98888000D01*
G75*
G02*
X161556000Y-98638000I250000J0D01*
G01*
X163056000Y-98638000D01*
G75*
G02*
X163306000Y-98888000I0J-250000D01*
G01*
X163306000Y-100088000D01*
G75*
G02*
X163056000Y-100338000I-250000J0D01*
G01*
G37*
%TD*%
D15*
%TO.C,J2*%
X162306000Y-81708000D03*
X162306000Y-79168000D03*
D16*
X162306000Y-76628000D03*
%TD*%
%TO.C,R1*%
G36*
G01*
X161486001Y-90198000D02*
X160585999Y-90198000D01*
G75*
G02*
X160336000Y-89948001I0J249999D01*
G01*
X160336000Y-89247999D01*
G75*
G02*
X160585999Y-88998000I249999J0D01*
G01*
X161486001Y-88998000D01*
G75*
G02*
X161736000Y-89247999I0J-249999D01*
G01*
X161736000Y-89948001D01*
G75*
G02*
X161486001Y-90198000I-249999J0D01*
G01*
G37*
G36*
G01*
X161486001Y-92198000D02*
X160585999Y-92198000D01*
G75*
G02*
X160336000Y-91948001I0J249999D01*
G01*
X160336000Y-91247999D01*
G75*
G02*
X160585999Y-90998000I249999J0D01*
G01*
X161486001Y-90998000D01*
G75*
G02*
X161736000Y-91247999I0J-249999D01*
G01*
X161736000Y-91948001D01*
G75*
G02*
X161486001Y-92198000I-249999J0D01*
G01*
G37*
%TD*%
D17*
%TO.C,U1*%
X128016000Y-74088000D03*
X128016000Y-76628000D03*
X128016000Y-79168000D03*
X128016000Y-81708000D03*
X128016000Y-84248000D03*
X128016000Y-86788000D03*
X128016000Y-89328000D03*
X128016000Y-91868000D03*
X128016000Y-94408000D03*
X128016000Y-96948000D03*
X128016000Y-99488000D03*
X128016000Y-102028000D03*
X128016000Y-104568000D03*
X128016000Y-107108000D03*
X155956000Y-71548000D03*
X155956000Y-74088000D03*
X155956000Y-76628000D03*
X155956000Y-79168000D03*
X155956000Y-81708000D03*
X155956000Y-84248000D03*
X155956000Y-86788000D03*
X155956000Y-89328000D03*
X155956000Y-91868000D03*
X155956000Y-94408000D03*
X155956000Y-96948000D03*
X155956000Y-99488000D03*
X155956000Y-102028000D03*
X155956000Y-104568000D03*
X155956000Y-107108000D03*
X128016000Y-71548000D03*
%TD*%
D18*
%TO.C,J1*%
X147036000Y-124698000D03*
X147686000Y-124698000D03*
X148336000Y-124698000D03*
X148986000Y-124698000D03*
X149636000Y-124698000D03*
D19*
X145848500Y-124783000D03*
X150823500Y-124783000D03*
D20*
X144961000Y-127358000D03*
X151711000Y-127358000D03*
D21*
X147186000Y-127358000D03*
D22*
X149886000Y-127358000D03*
%TD*%
M02*
