M48
; DRILL file {KiCad (5.1.10)-1} date 08/28/21 03:20:57
; FORMAT={-:-/ absolute / metric / decimal}
; #@! TF.CreationDate,2021-08-28T03:20:57+08:00
; #@! TF.GenerationSoftware,Kicad,Pcbnew,(5.1.10)-1
; #@! TF.FileFunction,Plated,1,2,PTH
FMAT,2
METRIC
T1C0.650
T2C0.700
T3C0.762
T4C0.800
T5C1.000
%
G90
G05
T3
X128.016Y-71.548
X128.016Y-74.088
X128.016Y-76.628
X128.016Y-79.168
X128.016Y-81.708
X128.016Y-84.248
X128.016Y-86.788
X128.016Y-89.328
X128.016Y-91.868
X128.016Y-94.408
X128.016Y-96.948
X128.016Y-99.488
X128.016Y-102.028
X128.016Y-104.568
X128.016Y-107.108
X155.956Y-71.548
X155.956Y-74.088
X155.956Y-76.628
X155.956Y-79.168
X155.956Y-81.708
X155.956Y-84.248
X155.956Y-86.788
X155.956Y-89.328
X155.956Y-91.868
X155.956Y-94.408
X155.956Y-96.948
X155.956Y-99.488
X155.956Y-102.028
X155.956Y-104.568
X155.956Y-107.108
T4
X133.096Y-122.388
X133.096Y-124.888
T5
X162.306Y-76.628
X162.306Y-79.168
X162.306Y-81.708
X162.306Y-96.988
X162.306Y-99.488
T1
X145.891Y-124.473G85X145.891Y-124.073
G05
X150.731Y-124.473G85X150.731Y-124.073
G05
T2
X145.581Y-127.523G85X145.581Y-127.023
G05
X151.041Y-127.523G85X151.041Y-127.023
G05
T0
M30
