%TF.GenerationSoftware,KiCad,Pcbnew,(5.1.10)-1*%
%TF.CreationDate,2021-08-28T03:20:54+08:00*%
%TF.ProjectId,nodemcu_board,6e6f6465-6d63-4755-9f62-6f6172642e6b,rev?*%
%TF.SameCoordinates,Original*%
%TF.FileFunction,Copper,L1,Top*%
%TF.FilePolarity,Positive*%
%FSLAX46Y46*%
G04 Gerber Fmt 4.6, Leading zero omitted, Abs format (unit mm)*
G04 Created by KiCad (PCBNEW (5.1.10)-1) date 2021-08-28 03:20:54*
%MOMM*%
%LPD*%
G01*
G04 APERTURE LIST*
%TA.AperFunction,ComponentPad*%
%ADD10C,1.600000*%
%TD*%
%TA.AperFunction,ComponentPad*%
%ADD11R,1.600000X1.600000*%
%TD*%
%TA.AperFunction,ComponentPad*%
%ADD12O,2.000000X1.700000*%
%TD*%
%TA.AperFunction,SMDPad,CuDef*%
%ADD13R,1.430000X2.500000*%
%TD*%
%TA.AperFunction,ComponentPad*%
%ADD14O,1.350000X1.700000*%
%TD*%
%TA.AperFunction,ComponentPad*%
%ADD15O,1.100000X1.500000*%
%TD*%
%TA.AperFunction,SMDPad,CuDef*%
%ADD16R,0.400000X1.650000*%
%TD*%
%TA.AperFunction,SMDPad,CuDef*%
%ADD17R,2.000000X1.500000*%
%TD*%
%TA.AperFunction,SMDPad,CuDef*%
%ADD18R,1.825000X0.700000*%
%TD*%
%TA.AperFunction,SMDPad,CuDef*%
%ADD19R,1.350000X2.000000*%
%TD*%
%TA.AperFunction,ComponentPad*%
%ADD20O,1.700000X1.700000*%
%TD*%
%TA.AperFunction,ComponentPad*%
%ADD21R,1.700000X1.700000*%
%TD*%
%TA.AperFunction,ComponentPad*%
%ADD22C,1.524000*%
%TD*%
%TA.AperFunction,Conductor*%
%ADD23C,0.250000*%
%TD*%
G04 APERTURE END LIST*
D10*
%TO.P,C1,2*%
%TO.N,Net-(C1-Pad2)*%
X133096000Y-122388000D03*
D11*
%TO.P,C1,1*%
%TO.N,Net-(C1-Pad1)*%
X133096000Y-124888000D03*
%TD*%
D12*
%TO.P,D1,2*%
%TO.N,Net-(D1-Pad2)*%
X162306000Y-96988000D03*
%TO.P,D1,1*%
%TO.N,Net-(C1-Pad2)*%
%TA.AperFunction,ComponentPad*%
G36*
G01*
X163056000Y-100338000D02*
X161556000Y-100338000D01*
G75*
G02*
X161306000Y-100088000I0J250000D01*
G01*
X161306000Y-98888000D01*
G75*
G02*
X161556000Y-98638000I250000J0D01*
G01*
X163056000Y-98638000D01*
G75*
G02*
X163306000Y-98888000I0J-250000D01*
G01*
X163306000Y-100088000D01*
G75*
G02*
X163056000Y-100338000I-250000J0D01*
G01*
G37*
%TD.AperFunction*%
%TD*%
D13*
%TO.P,J1,6*%
%TO.N,Net-(C1-Pad2)*%
X149271000Y-127543000D03*
X147351000Y-127543000D03*
D14*
X151041000Y-127273000D03*
X145581000Y-127273000D03*
D15*
X150731000Y-124273000D03*
X145891000Y-124273000D03*
D16*
%TO.P,J1,5*%
X149611000Y-124393000D03*
%TO.P,J1,4*%
%TO.N,Net-(J1-Pad4)*%
X148961000Y-124393000D03*
%TO.P,J1,3*%
%TO.N,Net-(J1-Pad3)*%
X148311000Y-124393000D03*
%TO.P,J1,2*%
%TO.N,Net-(J1-Pad2)*%
X147661000Y-124393000D03*
%TO.P,J1,1*%
%TO.N,Net-(C1-Pad1)*%
X147011000Y-124393000D03*
D17*
%TO.P,J1,6*%
%TO.N,Net-(C1-Pad2)*%
X151211000Y-124273000D03*
X145461000Y-124293000D03*
D18*
X151311000Y-125593000D03*
X145361000Y-125593000D03*
D19*
X145581000Y-126343000D03*
X151061000Y-126343000D03*
%TD*%
D20*
%TO.P,J2,3*%
%TO.N,Net-(J2-Pad3)*%
X162306000Y-81708000D03*
%TO.P,J2,2*%
%TO.N,Net-(C1-Pad1)*%
X162306000Y-79168000D03*
D21*
%TO.P,J2,1*%
%TO.N,Net-(C1-Pad2)*%
X162306000Y-76628000D03*
%TD*%
%TO.P,R1,2*%
%TO.N,Net-(R1-Pad2)*%
%TA.AperFunction,SMDPad,CuDef*%
G36*
G01*
X161486001Y-90198000D02*
X160585999Y-90198000D01*
G75*
G02*
X160336000Y-89948001I0J249999D01*
G01*
X160336000Y-89247999D01*
G75*
G02*
X160585999Y-88998000I249999J0D01*
G01*
X161486001Y-88998000D01*
G75*
G02*
X161736000Y-89247999I0J-249999D01*
G01*
X161736000Y-89948001D01*
G75*
G02*
X161486001Y-90198000I-249999J0D01*
G01*
G37*
%TD.AperFunction*%
%TO.P,R1,1*%
%TO.N,Net-(D1-Pad2)*%
%TA.AperFunction,SMDPad,CuDef*%
G36*
G01*
X161486001Y-92198000D02*
X160585999Y-92198000D01*
G75*
G02*
X160336000Y-91948001I0J249999D01*
G01*
X160336000Y-91247999D01*
G75*
G02*
X160585999Y-90998000I249999J0D01*
G01*
X161486001Y-90998000D01*
G75*
G02*
X161736000Y-91247999I0J-249999D01*
G01*
X161736000Y-91948001D01*
G75*
G02*
X161486001Y-92198000I-249999J0D01*
G01*
G37*
%TD.AperFunction*%
%TD*%
D22*
%TO.P,U1,1*%
%TO.N,Net-(C1-Pad2)*%
X128016000Y-74088000D03*
%TO.P,U1,2*%
%TO.N,N/C*%
X128016000Y-76628000D03*
%TO.P,U1,3*%
X128016000Y-79168000D03*
%TO.P,U1,4*%
X128016000Y-81708000D03*
%TO.P,U1,5*%
X128016000Y-84248000D03*
%TO.P,U1,6*%
X128016000Y-86788000D03*
%TO.P,U1,7*%
X128016000Y-89328000D03*
%TO.P,U1,8*%
X128016000Y-91868000D03*
%TO.P,U1,9*%
X128016000Y-94408000D03*
%TO.P,U1,10*%
%TO.N,Net-(U1-Pad10)*%
X128016000Y-96948000D03*
%TO.P,U1,11*%
%TO.N,N/C*%
X128016000Y-99488000D03*
%TO.P,U1,12*%
%TO.N,Net-(U1-Pad12)*%
X128016000Y-102028000D03*
%TO.P,U1,13*%
%TO.N,N/C*%
X128016000Y-104568000D03*
%TO.P,U1,14*%
%TO.N,Net-(C1-Pad1)*%
X128016000Y-107108000D03*
%TO.P,U1,15*%
%TO.N,Net-(U1-Pad15)*%
X155956000Y-71548000D03*
%TO.P,U1,16*%
%TO.N,Net-(U1-Pad16)*%
X155956000Y-74088000D03*
%TO.P,U1,17*%
%TO.N,Net-(U1-Pad17)*%
X155956000Y-76628000D03*
%TO.P,U1,18*%
%TO.N,Net-(U1-Pad18)*%
X155956000Y-79168000D03*
%TO.P,U1,19*%
%TO.N,Net-(J2-Pad3)*%
X155956000Y-81708000D03*
%TO.P,U1,20*%
%TO.N,N/C*%
X155956000Y-84248000D03*
%TO.P,U1,21*%
X155956000Y-86788000D03*
%TO.P,U1,22*%
%TO.N,Net-(R1-Pad2)*%
X155956000Y-89328000D03*
%TO.P,U1,23*%
%TO.N,Net-(U1-Pad23)*%
X155956000Y-91868000D03*
%TO.P,U1,24*%
%TO.N,Net-(U1-Pad24)*%
X155956000Y-94408000D03*
%TO.P,U1,25*%
%TO.N,Net-(U1-Pad25)*%
X155956000Y-96948000D03*
%TO.P,U1,26*%
%TO.N,Net-(U1-Pad26)*%
X155956000Y-99488000D03*
%TO.P,U1,27*%
%TO.N,Net-(U1-Pad27)*%
X155956000Y-102028000D03*
%TO.P,U1,28*%
%TO.N,N/C*%
X155956000Y-104568000D03*
%TO.P,U1,29*%
X155956000Y-107108000D03*
%TO.P,U1,0*%
%TO.N,Net-(U1-Pad0)*%
X128016000Y-71548000D03*
%TD*%
D23*
%TO.N,*%
X155956000Y-86788000D02*
X153416000Y-89328000D01*
X153416000Y-89328000D02*
X153416000Y-102028000D01*
X153416000Y-102028000D02*
X155956000Y-104568000D01*
%TO.N,Net-(C1-Pad1)*%
X133096000Y-124888000D02*
X140716000Y-124888000D01*
X140716000Y-124888000D02*
X143256000Y-122348000D01*
X143256000Y-122348000D02*
X145796000Y-122348000D01*
X145796000Y-122348000D02*
X147066000Y-123618000D01*
X133096000Y-124888000D02*
X130556000Y-124888000D01*
X130556000Y-124888000D02*
X128016000Y-122348000D01*
X128016000Y-122348000D02*
X128016000Y-107108000D01*
%TO.N,Net-(C1-Pad2)*%
X140676000Y-122388000D02*
X133096000Y-122388000D01*
X141986000Y-121078000D02*
X140676000Y-122388000D01*
X149611000Y-122353000D02*
X148336000Y-121078000D01*
X148336000Y-121078000D02*
X141986000Y-121078000D01*
X149611000Y-124393000D02*
X149611000Y-122353000D01*
X163576000Y-76628000D02*
X162306000Y-76628000D01*
X164846000Y-77898000D02*
X163576000Y-76628000D01*
X164846000Y-98218000D02*
X164846000Y-77898000D01*
X163576000Y-99488000D02*
X164846000Y-98218000D01*
X162306000Y-99488000D02*
X163576000Y-99488000D01*
X131826000Y-121118000D02*
X131826000Y-77898000D01*
X131826000Y-77898000D02*
X128016000Y-74088000D01*
X133096000Y-122388000D02*
X131826000Y-121118000D01*
X162306000Y-109658000D02*
X149611000Y-122353000D01*
X162306000Y-99488000D02*
X162306000Y-109658000D01*
%TO.N,Net-(D1-Pad2)*%
X161036000Y-95718000D02*
X162306000Y-96988000D01*
X161036000Y-91598000D02*
X161036000Y-95718000D01*
%TO.N,Net-(J2-Pad3)*%
X162306000Y-81708000D02*
X155956000Y-81708000D01*
%TO.N,Net-(R1-Pad2)*%
X160766000Y-89328000D02*
X161036000Y-89598000D01*
X155956000Y-89328000D02*
X160766000Y-89328000D01*
%TD*%
M02*
