%TF.GenerationSoftware,KiCad,Pcbnew,(5.1.10)-1*%
%TF.CreationDate,2021-09-02T19:06:41+08:00*%
%TF.ProjectId,nodemcu_board,6e6f6465-6d63-4755-9f62-6f6172642e6b,rev?*%
%TF.SameCoordinates,Original*%
%TF.FileFunction,Copper,L2,Bot*%
%TF.FilePolarity,Positive*%
%FSLAX46Y46*%
G04 Gerber Fmt 4.6, Leading zero omitted, Abs format (unit mm)*
G04 Created by KiCad (PCBNEW (5.1.10)-1) date 2021-09-02 19:06:41*
%MOMM*%
%LPD*%
G01*
G04 APERTURE LIST*
%TA.AperFunction,ComponentPad*%
%ADD10C,1.600000*%
%TD*%
%TA.AperFunction,ComponentPad*%
%ADD11R,1.600000X1.600000*%
%TD*%
%TA.AperFunction,ComponentPad*%
%ADD12O,2.000000X1.700000*%
%TD*%
%TA.AperFunction,ComponentPad*%
%ADD13O,1.700000X1.700000*%
%TD*%
%TA.AperFunction,ComponentPad*%
%ADD14R,1.700000X1.700000*%
%TD*%
%TA.AperFunction,ComponentPad*%
%ADD15C,1.524000*%
%TD*%
%TA.AperFunction,Conductor*%
%ADD16C,0.250000*%
%TD*%
G04 APERTURE END LIST*
D10*
%TO.P,C1,2*%
%TO.N,Net-(C1-Pad2)*%
X133096000Y-122388000D03*
D11*
%TO.P,C1,1*%
%TO.N,Net-(C1-Pad1)*%
X133096000Y-124888000D03*
%TD*%
D12*
%TO.P,D1,2*%
%TO.N,Net-(D1-Pad2)*%
X162306000Y-96988000D03*
%TO.P,D1,1*%
%TO.N,Net-(C1-Pad2)*%
%TA.AperFunction,ComponentPad*%
G36*
G01*
X163056000Y-100338000D02*
X161556000Y-100338000D01*
G75*
G02*
X161306000Y-100088000I0J250000D01*
G01*
X161306000Y-98888000D01*
G75*
G02*
X161556000Y-98638000I250000J0D01*
G01*
X163056000Y-98638000D01*
G75*
G02*
X163306000Y-98888000I0J-250000D01*
G01*
X163306000Y-100088000D01*
G75*
G02*
X163056000Y-100338000I-250000J0D01*
G01*
G37*
%TD.AperFunction*%
%TD*%
D13*
%TO.P,J2,3*%
%TO.N,Net-(J2-Pad3)*%
X162306000Y-81708000D03*
%TO.P,J2,2*%
%TO.N,Net-(C1-Pad1)*%
X162306000Y-79168000D03*
D14*
%TO.P,J2,1*%
%TO.N,Net-(C1-Pad2)*%
X162306000Y-76628000D03*
%TD*%
D15*
%TO.P,U1,1*%
%TO.N,N/C*%
X128016000Y-74088000D03*
%TO.P,U1,2*%
X128016000Y-76628000D03*
%TO.P,U1,3*%
X128016000Y-79168000D03*
%TO.P,U1,4*%
X128016000Y-81708000D03*
%TO.P,U1,5*%
X128016000Y-84248000D03*
%TO.P,U1,6*%
X128016000Y-86788000D03*
%TO.P,U1,7*%
X128016000Y-89328000D03*
%TO.P,U1,8*%
X128016000Y-91868000D03*
%TO.P,U1,9*%
X128016000Y-94408000D03*
%TO.P,U1,10*%
%TO.N,Net-(U1-Pad10)*%
X128016000Y-96948000D03*
%TO.P,U1,11*%
%TO.N,N/C*%
X128016000Y-99488000D03*
%TO.P,U1,12*%
%TO.N,Net-(U1-Pad12)*%
X128016000Y-102028000D03*
%TO.P,U1,13*%
%TO.N,Net-(C1-Pad2)*%
X128016000Y-104568000D03*
%TO.P,U1,14*%
%TO.N,Net-(C1-Pad1)*%
X128016000Y-107108000D03*
%TO.P,U1,15*%
%TO.N,Net-(U1-Pad12)*%
X155956000Y-71548000D03*
%TO.P,U1,16*%
%TO.N,Net-(U1-Pad16)*%
X155956000Y-74088000D03*
%TO.P,U1,17*%
%TO.N,Net-(U1-Pad17)*%
X155956000Y-76628000D03*
%TO.P,U1,18*%
%TO.N,Net-(U1-Pad18)*%
X155956000Y-79168000D03*
%TO.P,U1,19*%
%TO.N,Net-(J2-Pad3)*%
X155956000Y-81708000D03*
%TO.P,U1,20*%
%TO.N,N/C*%
X155956000Y-84248000D03*
%TO.P,U1,21*%
X155956000Y-86788000D03*
%TO.P,U1,22*%
%TO.N,Net-(R1-Pad2)*%
X155956000Y-89328000D03*
%TO.P,U1,23*%
%TO.N,Net-(U1-Pad23)*%
X155956000Y-91868000D03*
%TO.P,U1,24*%
%TO.N,Net-(U1-Pad24)*%
X155956000Y-94408000D03*
%TO.P,U1,25*%
%TO.N,Net-(U1-Pad25)*%
X155956000Y-96948000D03*
%TO.P,U1,26*%
%TO.N,Net-(U1-Pad26)*%
X155956000Y-99488000D03*
%TO.P,U1,27*%
%TO.N,Net-(U1-Pad27)*%
X155956000Y-102028000D03*
%TO.P,U1,28*%
%TO.N,N/C*%
X155956000Y-104568000D03*
%TO.P,U1,29*%
X155956000Y-107108000D03*
%TO.P,U1,0*%
%TO.N,Net-(U1-Pad0)*%
X128016000Y-71548000D03*
%TD*%
D16*
%TO.N,Net-(C1-Pad1)*%
X128016000Y-107108000D02*
X152146000Y-82978000D01*
X152146000Y-82978000D02*
X152146000Y-70278000D01*
X152146000Y-70278000D02*
X153416000Y-69008000D01*
X153416000Y-69008000D02*
X157226000Y-69008000D01*
X157226000Y-69008000D02*
X159766000Y-71548000D01*
X159766000Y-71548000D02*
X159766000Y-79168000D01*
X159766000Y-79168000D02*
X162306000Y-79168000D01*
%TD*%
M02*
