%TF.GenerationSoftware,KiCad,Pcbnew,(5.1.10)-1*%
%TF.CreationDate,2021-09-02T21:54:32+08:00*%
%TF.ProjectId,wemos_board,77656d6f-735f-4626-9f61-72642e6b6963,rev?*%
%TF.SameCoordinates,Original*%
%TF.FileFunction,Copper,L1,Top*%
%TF.FilePolarity,Positive*%
%FSLAX46Y46*%
G04 Gerber Fmt 4.6, Leading zero omitted, Abs format (unit mm)*
G04 Created by KiCad (PCBNEW (5.1.10)-1) date 2021-09-02 21:54:32*
%MOMM*%
%LPD*%
G01*
G04 APERTURE LIST*
%TA.AperFunction,ComponentPad*%
%ADD10O,2.000000X1.600000*%
%TD*%
%TA.AperFunction,ComponentPad*%
%ADD11R,2.000000X2.000000*%
%TD*%
%TA.AperFunction,ComponentPad*%
%ADD12O,2.000000X1.700000*%
%TD*%
%TA.AperFunction,ComponentPad*%
%ADD13R,1.600000X1.600000*%
%TD*%
%TA.AperFunction,ComponentPad*%
%ADD14C,1.600000*%
%TD*%
%TA.AperFunction,ComponentPad*%
%ADD15O,1.700000X1.700000*%
%TD*%
%TA.AperFunction,ComponentPad*%
%ADD16R,1.700000X1.700000*%
%TD*%
%TA.AperFunction,SMDPad,CuDef*%
%ADD17R,0.450000X1.380000*%
%TD*%
%TA.AperFunction,SMDPad,CuDef*%
%ADD18R,1.425000X1.550000*%
%TD*%
%TA.AperFunction,SMDPad,CuDef*%
%ADD19R,1.650000X1.300000*%
%TD*%
%TA.AperFunction,SMDPad,CuDef*%
%ADD20R,1.800000X1.900000*%
%TD*%
%TA.AperFunction,SMDPad,CuDef*%
%ADD21R,1.000000X1.900000*%
%TD*%
%TA.AperFunction,Conductor*%
%ADD22C,0.250000*%
%TD*%
G04 APERTURE END LIST*
D10*
%TO.P,U1,2*%
%TO.N,Net-(U1-Pad2)*%
X140970000Y-107950000D03*
D11*
%TO.P,U1,1*%
%TO.N,Net-(U1-Pad1)*%
X140970000Y-110490000D03*
D10*
%TO.P,U1,3*%
X140970000Y-105410000D03*
%TO.P,U1,4*%
%TO.N,Net-(R1-Pad2)*%
X140970000Y-102870000D03*
%TO.P,U1,5*%
%TO.N,Net-(U1-Pad5)*%
X140970000Y-100330000D03*
%TO.P,U1,6*%
%TO.N,Net-(U1-Pad6)*%
X140970000Y-97790000D03*
%TO.P,U1,7*%
%TO.N,Net-(U1-Pad7)*%
X140970000Y-95250000D03*
%TO.P,U1,8*%
%TO.N,Net-(U1-Pad8)*%
X140970000Y-92710000D03*
%TO.P,U1,9*%
%TO.N,Net-(C1-Pad1)*%
X118110000Y-92710000D03*
%TO.P,U1,10*%
%TO.N,Net-(C1-Pad2)*%
X118110000Y-95250000D03*
%TO.P,U1,11*%
%TO.N,Net-(J2-Pad3)*%
X118110000Y-97790000D03*
%TO.P,U1,12*%
%TO.N,Net-(U1-Pad12)*%
X118110000Y-100330000D03*
%TO.P,U1,13*%
%TO.N,Net-(U1-Pad13)*%
X118110000Y-102870000D03*
%TO.P,U1,14*%
%TO.N,Net-(U1-Pad14)*%
X118110000Y-105410000D03*
%TO.P,U1,15*%
%TO.N,Net-(U1-Pad15)*%
X118110000Y-107950000D03*
%TO.P,U1,16*%
%TO.N,Net-(U1-Pad16)*%
X118110000Y-110490000D03*
%TD*%
%TO.P,R1,1*%
%TO.N,Net-(D1-Pad2)*%
%TA.AperFunction,SMDPad,CuDef*%
G36*
G01*
X144789999Y-83490000D02*
X145690001Y-83490000D01*
G75*
G02*
X145940000Y-83739999I0J-249999D01*
G01*
X145940000Y-84440001D01*
G75*
G02*
X145690001Y-84690000I-249999J0D01*
G01*
X144789999Y-84690000D01*
G75*
G02*
X144540000Y-84440001I0J249999D01*
G01*
X144540000Y-83739999D01*
G75*
G02*
X144789999Y-83490000I249999J0D01*
G01*
G37*
%TD.AperFunction*%
%TO.P,R1,2*%
%TO.N,Net-(R1-Pad2)*%
%TA.AperFunction,SMDPad,CuDef*%
G36*
G01*
X144789999Y-85490000D02*
X145690001Y-85490000D01*
G75*
G02*
X145940000Y-85739999I0J-249999D01*
G01*
X145940000Y-86440001D01*
G75*
G02*
X145690001Y-86690000I-249999J0D01*
G01*
X144789999Y-86690000D01*
G75*
G02*
X144540000Y-86440001I0J249999D01*
G01*
X144540000Y-85739999D01*
G75*
G02*
X144789999Y-85490000I249999J0D01*
G01*
G37*
%TD.AperFunction*%
%TD*%
%TO.P,D1,1*%
%TO.N,Net-(C1-Pad2)*%
%TA.AperFunction,ComponentPad*%
G36*
G01*
X144490000Y-74080000D02*
X145990000Y-74080000D01*
G75*
G02*
X146240000Y-74330000I0J-250000D01*
G01*
X146240000Y-75530000D01*
G75*
G02*
X145990000Y-75780000I-250000J0D01*
G01*
X144490000Y-75780000D01*
G75*
G02*
X144240000Y-75530000I0J250000D01*
G01*
X144240000Y-74330000D01*
G75*
G02*
X144490000Y-74080000I250000J0D01*
G01*
G37*
%TD.AperFunction*%
D12*
%TO.P,D1,2*%
%TO.N,Net-(D1-Pad2)*%
X145240000Y-77430000D03*
%TD*%
D13*
%TO.P,C1,1*%
%TO.N,Net-(C1-Pad1)*%
X130810000Y-76200000D03*
D14*
%TO.P,C1,2*%
%TO.N,Net-(C1-Pad2)*%
X128310000Y-76200000D03*
%TD*%
D15*
%TO.P,J2,3*%
%TO.N,Net-(J2-Pad3)*%
X114570000Y-77740000D03*
%TO.P,J2,2*%
%TO.N,Net-(C1-Pad1)*%
X114570000Y-75200000D03*
D16*
%TO.P,J2,1*%
%TO.N,Net-(C1-Pad2)*%
X114570000Y-72660000D03*
%TD*%
D17*
%TO.P,J1,1*%
%TO.N,Net-(C1-Pad1)*%
X130704698Y-64360000D03*
%TO.P,J1,2*%
%TO.N,Net-(J1-Pad2)*%
X130054698Y-64360000D03*
%TO.P,J1,3*%
%TO.N,Net-(J1-Pad3)*%
X129404698Y-64360000D03*
%TO.P,J1,4*%
%TO.N,Net-(J1-Pad4)*%
X128754698Y-64360000D03*
%TO.P,J1,5*%
%TO.N,Net-(C1-Pad2)*%
X128104698Y-64360000D03*
D18*
%TO.P,J1,6*%
X131892198Y-64275000D03*
X126917198Y-64275000D03*
D19*
X132779698Y-61700000D03*
X126029698Y-61700000D03*
D20*
X130554698Y-61700000D03*
D21*
X127854698Y-61700000D03*
%TD*%
D22*
%TO.N,Net-(C1-Pad2)*%
X128104698Y-76405302D02*
X128310000Y-76200000D01*
X128279698Y-61700000D02*
X130529698Y-61700000D01*
X128104698Y-75994698D02*
X128310000Y-76200000D01*
X128270000Y-76240000D02*
X128310000Y-76200000D01*
X128270000Y-82550000D02*
X128270000Y-76240000D01*
X128310000Y-76200000D02*
X121920000Y-76200000D01*
X128270000Y-85090000D02*
X118110000Y-95250000D01*
X128270000Y-82550000D02*
X128270000Y-85090000D01*
X138430000Y-74930000D02*
X130810000Y-82550000D01*
X130810000Y-82550000D02*
X128270000Y-82550000D01*
X128229697Y-64474999D02*
X128104698Y-64350000D01*
X128229697Y-76119697D02*
X128229697Y-64474999D01*
X128310000Y-76200000D02*
X128229697Y-76119697D01*
X145240000Y-74930000D02*
X138430000Y-74930000D01*
X118380000Y-72660000D02*
X121920000Y-76200000D01*
X114570000Y-72660000D02*
X118380000Y-72660000D01*
%TO.N,Net-(C1-Pad1)*%
X130704698Y-64795002D02*
X130704698Y-64350000D01*
X130810000Y-76200000D02*
X131729699Y-77119699D01*
X130704698Y-76094698D02*
X130810000Y-76200000D01*
X130810000Y-64455302D02*
X130704698Y-64350000D01*
X130810000Y-76200000D02*
X130810000Y-64455302D01*
%TO.N,Net-(D1-Pad2)*%
X145240000Y-84090000D02*
X145240000Y-77430000D01*
%TO.N,Net-(J2-Pad3)*%
X115570000Y-95250000D02*
X118110000Y-97790000D01*
X115570000Y-78740000D02*
X115570000Y-95250000D01*
X115570000Y-78740000D02*
X114570000Y-77740000D01*
%TO.N,Net-(R1-Pad2)*%
X145240000Y-86090000D02*
X144240000Y-86090000D01*
X145240000Y-98600000D02*
X145240000Y-86090000D01*
X140970000Y-102870000D02*
X145240000Y-98600000D01*
%TO.N,Net-(U1-Pad1)*%
X140970000Y-110490000D02*
X144780000Y-110490000D01*
X144780000Y-110490000D02*
X144780000Y-105664000D01*
X144526000Y-105410000D02*
X140970000Y-105410000D01*
X144780000Y-105664000D02*
X144526000Y-105410000D01*
%TD*%
M02*
