M48
; DRILL file {KiCad (5.1.10)-1} date 08/25/21 17:12:24
; FORMAT={-:-/ absolute / metric / decimal}
; #@! TF.CreationDate,2021-08-25T17:12:24+08:00
; #@! TF.GenerationSoftware,Kicad,Pcbnew,(5.1.10)-1
; #@! TF.FileFunction,Plated,1,2,PTH
FMAT,2
METRIC
T1C0.450
T2C0.800
T3C1.000
%
G90
G05
T2
X128.31Y-76.2
X130.81Y-76.2
T3
X114.57Y-72.66
X114.57Y-75.2
X114.57Y-77.74
X118.11Y-92.71
X118.11Y-95.25
X118.11Y-97.79
X118.11Y-100.33
X118.11Y-102.87
X118.11Y-105.41
X118.11Y-107.95
X118.11Y-110.49
X140.97Y-92.71
X140.97Y-95.25
X140.97Y-97.79
X140.97Y-100.33
X140.97Y-102.87
X140.97Y-105.41
X140.97Y-107.95
X140.97Y-110.49
X145.24Y-74.93
X145.24Y-77.43
T1
X125.83Y-62.1G85X125.83Y-61.3
G05
X132.98Y-61.3G85X132.98Y-62.1
G05
T0
M30
