%TF.GenerationSoftware,KiCad,Pcbnew,(5.1.10)-1*%
%TF.CreationDate,2021-09-02T21:54:32+08:00*%
%TF.ProjectId,wemos_board,77656d6f-735f-4626-9f61-72642e6b6963,rev?*%
%TF.SameCoordinates,Original*%
%TF.FileFunction,Legend,Top*%
%TF.FilePolarity,Positive*%
%FSLAX46Y46*%
G04 Gerber Fmt 4.6, Leading zero omitted, Abs format (unit mm)*
G04 Created by KiCad (PCBNEW (5.1.10)-1) date 2021-09-02 21:54:32*
%MOMM*%
%LPD*%
G01*
G04 APERTURE LIST*
%ADD10C,0.150000*%
%ADD11C,0.120000*%
%ADD12C,3.200000*%
%ADD13O,2.000000X1.600000*%
%ADD14R,2.000000X2.000000*%
%ADD15O,2.000000X1.700000*%
%ADD16C,1.200000*%
%ADD17R,1.600000X1.600000*%
%ADD18C,1.600000*%
%ADD19O,1.700000X1.700000*%
%ADD20R,1.700000X1.700000*%
%ADD21R,0.450000X1.380000*%
%ADD22R,1.425000X1.550000*%
%ADD23R,1.650000X1.300000*%
%ADD24R,1.800000X1.900000*%
%ADD25R,1.000000X1.900000*%
G04 APERTURE END LIST*
D10*
X124635238Y-120435714D02*
X125016190Y-120435714D01*
X124778095Y-121102380D02*
X124778095Y-120245238D01*
X124825714Y-120150000D01*
X124920952Y-120102380D01*
X125016190Y-120102380D01*
X125349523Y-121102380D02*
X125349523Y-120435714D01*
X125349523Y-120102380D02*
X125301904Y-120150000D01*
X125349523Y-120197619D01*
X125397142Y-120150000D01*
X125349523Y-120102380D01*
X125349523Y-120197619D01*
X125778095Y-121054761D02*
X125873333Y-121102380D01*
X126063809Y-121102380D01*
X126159047Y-121054761D01*
X126206666Y-120959523D01*
X126206666Y-120911904D01*
X126159047Y-120816666D01*
X126063809Y-120769047D01*
X125920952Y-120769047D01*
X125825714Y-120721428D01*
X125778095Y-120626190D01*
X125778095Y-120578571D01*
X125825714Y-120483333D01*
X125920952Y-120435714D01*
X126063809Y-120435714D01*
X126159047Y-120483333D01*
X126635238Y-121102380D02*
X126635238Y-120102380D01*
X127063809Y-121102380D02*
X127063809Y-120578571D01*
X127016190Y-120483333D01*
X126920952Y-120435714D01*
X126778095Y-120435714D01*
X126682857Y-120483333D01*
X126635238Y-120530952D01*
X127540000Y-121102380D02*
X127540000Y-120435714D01*
X127540000Y-120102380D02*
X127492380Y-120150000D01*
X127540000Y-120197619D01*
X127587619Y-120150000D01*
X127540000Y-120102380D01*
X127540000Y-120197619D01*
X128397142Y-121054761D02*
X128301904Y-121102380D01*
X128111428Y-121102380D01*
X128016190Y-121054761D01*
X127968571Y-120959523D01*
X127968571Y-120578571D01*
X128016190Y-120483333D01*
X128111428Y-120435714D01*
X128301904Y-120435714D01*
X128397142Y-120483333D01*
X128444761Y-120578571D01*
X128444761Y-120673809D01*
X127968571Y-120769047D01*
X128825714Y-121054761D02*
X128920952Y-121102380D01*
X129111428Y-121102380D01*
X129206666Y-121054761D01*
X129254285Y-120959523D01*
X129254285Y-120911904D01*
X129206666Y-120816666D01*
X129111428Y-120769047D01*
X128968571Y-120769047D01*
X128873333Y-120721428D01*
X128825714Y-120626190D01*
X128825714Y-120578571D01*
X128873333Y-120483333D01*
X128968571Y-120435714D01*
X129111428Y-120435714D01*
X129206666Y-120483333D01*
X130444761Y-121102380D02*
X130444761Y-120435714D01*
X130444761Y-120530952D02*
X130492380Y-120483333D01*
X130587619Y-120435714D01*
X130730476Y-120435714D01*
X130825714Y-120483333D01*
X130873333Y-120578571D01*
X130873333Y-121102380D01*
X130873333Y-120578571D02*
X130920952Y-120483333D01*
X131016190Y-120435714D01*
X131159047Y-120435714D01*
X131254285Y-120483333D01*
X131301904Y-120578571D01*
X131301904Y-121102380D01*
X131778095Y-121102380D02*
X131778095Y-120102380D01*
X131873333Y-120721428D02*
X132159047Y-121102380D01*
X132159047Y-120435714D02*
X131778095Y-120816666D01*
X132587619Y-121007142D02*
X132635238Y-121054761D01*
X132587619Y-121102380D01*
X132540000Y-121054761D01*
X132587619Y-121007142D01*
X132587619Y-121102380D01*
X134349523Y-121102380D02*
X133778095Y-121102380D01*
X134063809Y-121102380D02*
X134063809Y-120102380D01*
X133968571Y-120245238D01*
X133873333Y-120340476D01*
X133778095Y-120388095D01*
X116824285Y-78144761D02*
X116967142Y-78192380D01*
X117205238Y-78192380D01*
X117300476Y-78144761D01*
X117348095Y-78097142D01*
X117395714Y-78001904D01*
X117395714Y-77906666D01*
X117348095Y-77811428D01*
X117300476Y-77763809D01*
X117205238Y-77716190D01*
X117014761Y-77668571D01*
X116919523Y-77620952D01*
X116871904Y-77573333D01*
X116824285Y-77478095D01*
X116824285Y-77382857D01*
X116871904Y-77287619D01*
X116919523Y-77240000D01*
X117014761Y-77192380D01*
X117252857Y-77192380D01*
X117395714Y-77240000D01*
X116729047Y-75271428D02*
X117490952Y-75271428D01*
X117110000Y-75652380D02*
X117110000Y-74890476D01*
X116729047Y-72731428D02*
X117490952Y-72731428D01*
D11*
%TO.C,U1*%
X139930000Y-84370000D02*
X116610000Y-84370000D01*
X142470000Y-91270000D02*
X142470000Y-116700000D01*
X116610000Y-84370000D02*
X116610000Y-116700000D01*
X118730000Y-118830000D02*
X140340000Y-118830000D01*
D10*
G36*
X143510000Y-111125000D02*
G01*
X143510000Y-109855000D01*
X142875000Y-110490000D01*
X143510000Y-111125000D01*
G37*
X143510000Y-111125000D02*
X143510000Y-109855000D01*
X142875000Y-110490000D01*
X143510000Y-111125000D01*
D11*
X142470000Y-91270000D02*
X139930000Y-91270000D01*
X139930000Y-91270000D02*
X139930000Y-84370000D01*
X142470000Y-116700000D02*
G75*
G02*
X140340000Y-118830000I-2130000J0D01*
G01*
X118740000Y-118830000D02*
G75*
G02*
X116610000Y-116700000I0J2130000D01*
G01*
%TO.C,R1*%
X145975000Y-84862936D02*
X145975000Y-85317064D01*
X144505000Y-84862936D02*
X144505000Y-85317064D01*
%TO.C,D1*%
X147700000Y-72370000D02*
X141730000Y-72370000D01*
X141730000Y-72370000D02*
X141730000Y-79990000D01*
X141730000Y-79990000D02*
X147700000Y-79990000D01*
X147700000Y-79990000D02*
X147700000Y-72370000D01*
X147690000Y-75680000D02*
X146940000Y-75680000D01*
X146940000Y-75680000D02*
X146940000Y-76680000D01*
X146940000Y-76680000D02*
X147690000Y-76680000D01*
X147690000Y-76680000D02*
X147690000Y-75680000D01*
X147690000Y-72380000D02*
X146940000Y-72380000D01*
X146940000Y-72380000D02*
X146940000Y-74180000D01*
X146940000Y-74180000D02*
X147690000Y-74180000D01*
X147690000Y-74180000D02*
X147690000Y-72380000D01*
X147690000Y-78180000D02*
X146940000Y-78180000D01*
X146940000Y-78180000D02*
X146940000Y-79980000D01*
X146940000Y-79980000D02*
X147690000Y-79980000D01*
X147690000Y-79980000D02*
X147690000Y-78180000D01*
X145440000Y-72380000D02*
X145440000Y-73130000D01*
X145440000Y-73130000D02*
X144100000Y-73130000D01*
X142490000Y-76180000D02*
X142490000Y-74190000D01*
X145440000Y-79980000D02*
X145440000Y-79230000D01*
X145440000Y-79230000D02*
X142490000Y-79230000D01*
X142490000Y-79230000D02*
X142490000Y-76180000D01*
X147990000Y-73330000D02*
X147990000Y-72080000D01*
X147990000Y-72080000D02*
X146740000Y-72080000D01*
%TO.C,C1*%
X133680000Y-76200000D02*
G75*
G03*
X133680000Y-76200000I-4120000J0D01*
G01*
X129560000Y-80280000D02*
X129560000Y-72120000D01*
X129520000Y-80280000D02*
X129520000Y-72120000D01*
X129480000Y-80280000D02*
X129480000Y-72120000D01*
X129440000Y-80279000D02*
X129440000Y-72121000D01*
X129400000Y-80277000D02*
X129400000Y-72123000D01*
X129360000Y-80276000D02*
X129360000Y-72124000D01*
X129320000Y-80274000D02*
X129320000Y-77240000D01*
X129320000Y-75160000D02*
X129320000Y-72126000D01*
X129280000Y-80271000D02*
X129280000Y-77240000D01*
X129280000Y-75160000D02*
X129280000Y-72129000D01*
X129240000Y-80268000D02*
X129240000Y-77240000D01*
X129240000Y-75160000D02*
X129240000Y-72132000D01*
X129200000Y-80265000D02*
X129200000Y-77240000D01*
X129200000Y-75160000D02*
X129200000Y-72135000D01*
X129160000Y-80261000D02*
X129160000Y-77240000D01*
X129160000Y-75160000D02*
X129160000Y-72139000D01*
X129120000Y-80257000D02*
X129120000Y-77240000D01*
X129120000Y-75160000D02*
X129120000Y-72143000D01*
X129080000Y-80252000D02*
X129080000Y-77240000D01*
X129080000Y-75160000D02*
X129080000Y-72148000D01*
X129040000Y-80248000D02*
X129040000Y-77240000D01*
X129040000Y-75160000D02*
X129040000Y-72152000D01*
X129000000Y-80242000D02*
X129000000Y-77240000D01*
X129000000Y-75160000D02*
X129000000Y-72158000D01*
X128960000Y-80237000D02*
X128960000Y-77240000D01*
X128960000Y-75160000D02*
X128960000Y-72163000D01*
X128920000Y-80230000D02*
X128920000Y-77240000D01*
X128920000Y-75160000D02*
X128920000Y-72170000D01*
X128880000Y-80224000D02*
X128880000Y-77240000D01*
X128880000Y-75160000D02*
X128880000Y-72176000D01*
X128839000Y-80217000D02*
X128839000Y-77240000D01*
X128839000Y-75160000D02*
X128839000Y-72183000D01*
X128799000Y-80210000D02*
X128799000Y-77240000D01*
X128799000Y-75160000D02*
X128799000Y-72190000D01*
X128759000Y-80202000D02*
X128759000Y-77240000D01*
X128759000Y-75160000D02*
X128759000Y-72198000D01*
X128719000Y-80194000D02*
X128719000Y-77240000D01*
X128719000Y-75160000D02*
X128719000Y-72206000D01*
X128679000Y-80185000D02*
X128679000Y-77240000D01*
X128679000Y-75160000D02*
X128679000Y-72215000D01*
X128639000Y-80176000D02*
X128639000Y-77240000D01*
X128639000Y-75160000D02*
X128639000Y-72224000D01*
X128599000Y-80167000D02*
X128599000Y-77240000D01*
X128599000Y-75160000D02*
X128599000Y-72233000D01*
X128559000Y-80157000D02*
X128559000Y-77240000D01*
X128559000Y-75160000D02*
X128559000Y-72243000D01*
X128519000Y-80147000D02*
X128519000Y-77240000D01*
X128519000Y-75160000D02*
X128519000Y-72253000D01*
X128479000Y-80136000D02*
X128479000Y-77240000D01*
X128479000Y-75160000D02*
X128479000Y-72264000D01*
X128439000Y-80125000D02*
X128439000Y-77240000D01*
X128439000Y-75160000D02*
X128439000Y-72275000D01*
X128399000Y-80114000D02*
X128399000Y-77240000D01*
X128399000Y-75160000D02*
X128399000Y-72286000D01*
X128359000Y-80102000D02*
X128359000Y-77240000D01*
X128359000Y-75160000D02*
X128359000Y-72298000D01*
X128319000Y-80089000D02*
X128319000Y-77240000D01*
X128319000Y-75160000D02*
X128319000Y-72311000D01*
X128279000Y-80077000D02*
X128279000Y-77240000D01*
X128279000Y-75160000D02*
X128279000Y-72323000D01*
X128239000Y-80063000D02*
X128239000Y-77240000D01*
X128239000Y-75160000D02*
X128239000Y-72337000D01*
X128199000Y-80050000D02*
X128199000Y-77240000D01*
X128199000Y-75160000D02*
X128199000Y-72350000D01*
X128159000Y-80035000D02*
X128159000Y-77240000D01*
X128159000Y-75160000D02*
X128159000Y-72365000D01*
X128119000Y-80021000D02*
X128119000Y-77240000D01*
X128119000Y-75160000D02*
X128119000Y-72379000D01*
X128079000Y-80005000D02*
X128079000Y-77240000D01*
X128079000Y-75160000D02*
X128079000Y-72395000D01*
X128039000Y-79990000D02*
X128039000Y-77240000D01*
X128039000Y-75160000D02*
X128039000Y-72410000D01*
X127999000Y-79974000D02*
X127999000Y-77240000D01*
X127999000Y-75160000D02*
X127999000Y-72426000D01*
X127959000Y-79957000D02*
X127959000Y-77240000D01*
X127959000Y-75160000D02*
X127959000Y-72443000D01*
X127919000Y-79940000D02*
X127919000Y-77240000D01*
X127919000Y-75160000D02*
X127919000Y-72460000D01*
X127879000Y-79922000D02*
X127879000Y-77240000D01*
X127879000Y-75160000D02*
X127879000Y-72478000D01*
X127839000Y-79904000D02*
X127839000Y-77240000D01*
X127839000Y-75160000D02*
X127839000Y-72496000D01*
X127799000Y-79886000D02*
X127799000Y-77240000D01*
X127799000Y-75160000D02*
X127799000Y-72514000D01*
X127759000Y-79866000D02*
X127759000Y-77240000D01*
X127759000Y-75160000D02*
X127759000Y-72534000D01*
X127719000Y-79847000D02*
X127719000Y-77240000D01*
X127719000Y-75160000D02*
X127719000Y-72553000D01*
X127679000Y-79827000D02*
X127679000Y-77240000D01*
X127679000Y-75160000D02*
X127679000Y-72573000D01*
X127639000Y-79806000D02*
X127639000Y-77240000D01*
X127639000Y-75160000D02*
X127639000Y-72594000D01*
X127599000Y-79784000D02*
X127599000Y-77240000D01*
X127599000Y-75160000D02*
X127599000Y-72616000D01*
X127559000Y-79762000D02*
X127559000Y-77240000D01*
X127559000Y-75160000D02*
X127559000Y-72638000D01*
X127519000Y-79740000D02*
X127519000Y-77240000D01*
X127519000Y-75160000D02*
X127519000Y-72660000D01*
X127479000Y-79717000D02*
X127479000Y-77240000D01*
X127479000Y-75160000D02*
X127479000Y-72683000D01*
X127439000Y-79693000D02*
X127439000Y-77240000D01*
X127439000Y-75160000D02*
X127439000Y-72707000D01*
X127399000Y-79669000D02*
X127399000Y-77240000D01*
X127399000Y-75160000D02*
X127399000Y-72731000D01*
X127359000Y-79644000D02*
X127359000Y-77240000D01*
X127359000Y-75160000D02*
X127359000Y-72756000D01*
X127319000Y-79618000D02*
X127319000Y-77240000D01*
X127319000Y-75160000D02*
X127319000Y-72782000D01*
X127279000Y-79592000D02*
X127279000Y-77240000D01*
X127279000Y-75160000D02*
X127279000Y-72808000D01*
X127239000Y-79565000D02*
X127239000Y-72835000D01*
X127199000Y-79538000D02*
X127199000Y-72862000D01*
X127159000Y-79509000D02*
X127159000Y-72891000D01*
X127119000Y-79480000D02*
X127119000Y-72920000D01*
X127079000Y-79450000D02*
X127079000Y-72950000D01*
X127039000Y-79420000D02*
X127039000Y-72980000D01*
X126999000Y-79389000D02*
X126999000Y-73011000D01*
X126959000Y-79356000D02*
X126959000Y-73044000D01*
X126919000Y-79324000D02*
X126919000Y-73076000D01*
X126879000Y-79290000D02*
X126879000Y-73110000D01*
X126839000Y-79255000D02*
X126839000Y-73145000D01*
X126799000Y-79219000D02*
X126799000Y-73181000D01*
X126759000Y-79183000D02*
X126759000Y-73217000D01*
X126719000Y-79145000D02*
X126719000Y-73255000D01*
X126679000Y-79107000D02*
X126679000Y-73293000D01*
X126639000Y-79067000D02*
X126639000Y-73333000D01*
X126599000Y-79026000D02*
X126599000Y-73374000D01*
X126559000Y-78984000D02*
X126559000Y-73416000D01*
X126519000Y-78941000D02*
X126519000Y-73459000D01*
X126479000Y-78897000D02*
X126479000Y-73503000D01*
X126439000Y-78851000D02*
X126439000Y-73549000D01*
X126399000Y-78804000D02*
X126399000Y-73596000D01*
X126359000Y-78756000D02*
X126359000Y-73644000D01*
X126319000Y-78705000D02*
X126319000Y-73695000D01*
X126279000Y-78654000D02*
X126279000Y-73746000D01*
X126239000Y-78600000D02*
X126239000Y-73800000D01*
X126199000Y-78545000D02*
X126199000Y-73855000D01*
X126159000Y-78487000D02*
X126159000Y-73913000D01*
X126119000Y-78428000D02*
X126119000Y-73972000D01*
X126079000Y-78366000D02*
X126079000Y-74034000D01*
X126039000Y-78302000D02*
X126039000Y-74098000D01*
X125999000Y-78234000D02*
X125999000Y-74166000D01*
X125959000Y-78164000D02*
X125959000Y-74236000D01*
X125919000Y-78090000D02*
X125919000Y-74310000D01*
X125879000Y-78013000D02*
X125879000Y-74387000D01*
X125839000Y-77931000D02*
X125839000Y-74469000D01*
X125799000Y-77845000D02*
X125799000Y-74555000D01*
X125759000Y-77752000D02*
X125759000Y-74648000D01*
X125719000Y-77653000D02*
X125719000Y-74747000D01*
X125679000Y-77546000D02*
X125679000Y-74854000D01*
X125639000Y-77429000D02*
X125639000Y-74971000D01*
X125599000Y-77298000D02*
X125599000Y-75102000D01*
X125559000Y-77148000D02*
X125559000Y-75252000D01*
X125519000Y-76968000D02*
X125519000Y-75432000D01*
X125479000Y-76733000D02*
X125479000Y-75667000D01*
X133969698Y-78515000D02*
X133169698Y-78515000D01*
X133569698Y-78915000D02*
X133569698Y-78115000D01*
%TO.C,J2*%
X113240000Y-71330000D02*
X114570000Y-71330000D01*
X113240000Y-72660000D02*
X113240000Y-71330000D01*
X113240000Y-73930000D02*
X115900000Y-73930000D01*
X115900000Y-73930000D02*
X115900000Y-79070000D01*
X113240000Y-73930000D02*
X113240000Y-79070000D01*
X113240000Y-79070000D02*
X115900000Y-79070000D01*
%TO.C,J1*%
X133214698Y-60300000D02*
X133214698Y-60560000D01*
X133214698Y-62840000D02*
X133214698Y-64610000D01*
X133214698Y-64610000D02*
X132834698Y-64610000D01*
X125594698Y-64610000D02*
X125594698Y-62840000D01*
X125594698Y-60560000D02*
X125594698Y-60300000D01*
X125594698Y-64610000D02*
X125974698Y-64610000D01*
%TO.C,U1*%
D10*
X118208095Y-82942380D02*
X118208095Y-83751904D01*
X118255714Y-83847142D01*
X118303333Y-83894761D01*
X118398571Y-83942380D01*
X118589047Y-83942380D01*
X118684285Y-83894761D01*
X118731904Y-83847142D01*
X118779523Y-83751904D01*
X118779523Y-82942380D01*
X119779523Y-83942380D02*
X119208095Y-83942380D01*
X119493809Y-83942380D02*
X119493809Y-82942380D01*
X119398571Y-83085238D01*
X119303333Y-83180476D01*
X119208095Y-83228095D01*
X123650952Y-109942380D02*
X123889047Y-110942380D01*
X124079523Y-110228095D01*
X124270000Y-110942380D01*
X124508095Y-109942380D01*
X125270000Y-110894761D02*
X125174761Y-110942380D01*
X124984285Y-110942380D01*
X124889047Y-110894761D01*
X124841428Y-110799523D01*
X124841428Y-110418571D01*
X124889047Y-110323333D01*
X124984285Y-110275714D01*
X125174761Y-110275714D01*
X125270000Y-110323333D01*
X125317619Y-110418571D01*
X125317619Y-110513809D01*
X124841428Y-110609047D01*
X125746190Y-110942380D02*
X125746190Y-109942380D01*
X126079523Y-110656666D01*
X126412857Y-109942380D01*
X126412857Y-110942380D01*
X127031904Y-110942380D02*
X126936666Y-110894761D01*
X126889047Y-110847142D01*
X126841428Y-110751904D01*
X126841428Y-110466190D01*
X126889047Y-110370952D01*
X126936666Y-110323333D01*
X127031904Y-110275714D01*
X127174761Y-110275714D01*
X127270000Y-110323333D01*
X127317619Y-110370952D01*
X127365238Y-110466190D01*
X127365238Y-110751904D01*
X127317619Y-110847142D01*
X127270000Y-110894761D01*
X127174761Y-110942380D01*
X127031904Y-110942380D01*
X127746190Y-110894761D02*
X127841428Y-110942380D01*
X128031904Y-110942380D01*
X128127142Y-110894761D01*
X128174761Y-110799523D01*
X128174761Y-110751904D01*
X128127142Y-110656666D01*
X128031904Y-110609047D01*
X127889047Y-110609047D01*
X127793809Y-110561428D01*
X127746190Y-110466190D01*
X127746190Y-110418571D01*
X127793809Y-110323333D01*
X127889047Y-110275714D01*
X128031904Y-110275714D01*
X128127142Y-110323333D01*
X128365238Y-111037619D02*
X129127142Y-111037619D01*
X129365238Y-110942380D02*
X129365238Y-109942380D01*
X129603333Y-109942380D01*
X129746190Y-109990000D01*
X129841428Y-110085238D01*
X129889047Y-110180476D01*
X129936666Y-110370952D01*
X129936666Y-110513809D01*
X129889047Y-110704285D01*
X129841428Y-110799523D01*
X129746190Y-110894761D01*
X129603333Y-110942380D01*
X129365238Y-110942380D01*
X130889047Y-110942380D02*
X130317619Y-110942380D01*
X130603333Y-110942380D02*
X130603333Y-109942380D01*
X130508095Y-110085238D01*
X130412857Y-110180476D01*
X130317619Y-110228095D01*
X131079523Y-111037619D02*
X131841428Y-111037619D01*
X132079523Y-110942380D02*
X132079523Y-110275714D01*
X132079523Y-110370952D02*
X132127142Y-110323333D01*
X132222380Y-110275714D01*
X132365238Y-110275714D01*
X132460476Y-110323333D01*
X132508095Y-110418571D01*
X132508095Y-110942380D01*
X132508095Y-110418571D02*
X132555714Y-110323333D01*
X132650952Y-110275714D01*
X132793809Y-110275714D01*
X132889047Y-110323333D01*
X132936666Y-110418571D01*
X132936666Y-110942380D01*
X133412857Y-110942380D02*
X133412857Y-110275714D01*
X133412857Y-109942380D02*
X133365238Y-109990000D01*
X133412857Y-110037619D01*
X133460476Y-109990000D01*
X133412857Y-109942380D01*
X133412857Y-110037619D01*
X133889047Y-110275714D02*
X133889047Y-110942380D01*
X133889047Y-110370952D02*
X133936666Y-110323333D01*
X134031904Y-110275714D01*
X134174761Y-110275714D01*
X134270000Y-110323333D01*
X134317619Y-110418571D01*
X134317619Y-110942380D01*
X134793809Y-110942380D02*
X134793809Y-110275714D01*
X134793809Y-109942380D02*
X134746190Y-109990000D01*
X134793809Y-110037619D01*
X134841428Y-109990000D01*
X134793809Y-109942380D01*
X134793809Y-110037619D01*
%TO.C,R1*%
X147342380Y-85256666D02*
X146866190Y-85590000D01*
X147342380Y-85828095D02*
X146342380Y-85828095D01*
X146342380Y-85447142D01*
X146390000Y-85351904D01*
X146437619Y-85304285D01*
X146532857Y-85256666D01*
X146675714Y-85256666D01*
X146770952Y-85304285D01*
X146818571Y-85351904D01*
X146866190Y-85447142D01*
X146866190Y-85828095D01*
X147342380Y-84304285D02*
X147342380Y-84875714D01*
X147342380Y-84590000D02*
X146342380Y-84590000D01*
X146485238Y-84685238D01*
X146580476Y-84780476D01*
X146628095Y-84875714D01*
X144042380Y-85209047D02*
X144042380Y-85780476D01*
X144042380Y-85494761D02*
X143042380Y-85494761D01*
X143185238Y-85590000D01*
X143280476Y-85685238D01*
X143328095Y-85780476D01*
X144042380Y-84780476D02*
X143042380Y-84780476D01*
X143661428Y-84685238D02*
X144042380Y-84399523D01*
X143375714Y-84399523D02*
X143756666Y-84780476D01*
%TO.C,D1*%
X149242380Y-76918095D02*
X148242380Y-76918095D01*
X148242380Y-76680000D01*
X148290000Y-76537142D01*
X148385238Y-76441904D01*
X148480476Y-76394285D01*
X148670952Y-76346666D01*
X148813809Y-76346666D01*
X149004285Y-76394285D01*
X149099523Y-76441904D01*
X149194761Y-76537142D01*
X149242380Y-76680000D01*
X149242380Y-76918095D01*
X149242380Y-75394285D02*
X149242380Y-75965714D01*
X149242380Y-75680000D02*
X148242380Y-75680000D01*
X148385238Y-75775238D01*
X148480476Y-75870476D01*
X148528095Y-75965714D01*
X141092380Y-76822857D02*
X141092380Y-77299047D01*
X140092380Y-77299047D01*
X140568571Y-76489523D02*
X140568571Y-76156190D01*
X141092380Y-76013333D02*
X141092380Y-76489523D01*
X140092380Y-76489523D01*
X140092380Y-76013333D01*
X141092380Y-75584761D02*
X140092380Y-75584761D01*
X140092380Y-75346666D01*
X140140000Y-75203809D01*
X140235238Y-75108571D01*
X140330476Y-75060952D01*
X140520952Y-75013333D01*
X140663809Y-75013333D01*
X140854285Y-75060952D01*
X140949523Y-75108571D01*
X141044761Y-75203809D01*
X141092380Y-75346666D01*
X141092380Y-75584761D01*
%TO.C,C1*%
X129393333Y-81807142D02*
X129345714Y-81854761D01*
X129202857Y-81902380D01*
X129107619Y-81902380D01*
X128964761Y-81854761D01*
X128869523Y-81759523D01*
X128821904Y-81664285D01*
X128774285Y-81473809D01*
X128774285Y-81330952D01*
X128821904Y-81140476D01*
X128869523Y-81045238D01*
X128964761Y-80950000D01*
X129107619Y-80902380D01*
X129202857Y-80902380D01*
X129345714Y-80950000D01*
X129393333Y-80997619D01*
X130345714Y-81902380D02*
X129774285Y-81902380D01*
X130060000Y-81902380D02*
X130060000Y-80902380D01*
X129964761Y-81045238D01*
X129869523Y-81140476D01*
X129774285Y-81188095D01*
X127917142Y-70735714D02*
X127917142Y-71402380D01*
X127679047Y-70354761D02*
X127440952Y-71069047D01*
X128060000Y-71069047D01*
X128345714Y-70402380D02*
X129012380Y-70402380D01*
X128583809Y-71402380D01*
X129583809Y-70402380D02*
X129679047Y-70402380D01*
X129774285Y-70450000D01*
X129821904Y-70497619D01*
X129869523Y-70592857D01*
X129917142Y-70783333D01*
X129917142Y-71021428D01*
X129869523Y-71211904D01*
X129821904Y-71307142D01*
X129774285Y-71354761D01*
X129679047Y-71402380D01*
X129583809Y-71402380D01*
X129488571Y-71354761D01*
X129440952Y-71307142D01*
X129393333Y-71211904D01*
X129345714Y-71021428D01*
X129345714Y-70783333D01*
X129393333Y-70592857D01*
X129440952Y-70497619D01*
X129488571Y-70450000D01*
X129583809Y-70402380D01*
X130774285Y-70735714D02*
X130774285Y-71402380D01*
X130345714Y-70735714D02*
X130345714Y-71259523D01*
X130393333Y-71354761D01*
X130488571Y-71402380D01*
X130631428Y-71402380D01*
X130726666Y-71354761D01*
X130774285Y-71307142D01*
X131583809Y-70878571D02*
X131250476Y-70878571D01*
X131250476Y-71402380D02*
X131250476Y-70402380D01*
X131726666Y-70402380D01*
%TO.C,J2*%
X114236666Y-69782380D02*
X114236666Y-70496666D01*
X114189047Y-70639523D01*
X114093809Y-70734761D01*
X113950952Y-70782380D01*
X113855714Y-70782380D01*
X114665238Y-69877619D02*
X114712857Y-69830000D01*
X114808095Y-69782380D01*
X115046190Y-69782380D01*
X115141428Y-69830000D01*
X115189047Y-69877619D01*
X115236666Y-69972857D01*
X115236666Y-70068095D01*
X115189047Y-70210952D01*
X114617619Y-70782380D01*
X115236666Y-70782380D01*
X112712857Y-80474761D02*
X112855714Y-80522380D01*
X113093809Y-80522380D01*
X113189047Y-80474761D01*
X113236666Y-80427142D01*
X113284285Y-80331904D01*
X113284285Y-80236666D01*
X113236666Y-80141428D01*
X113189047Y-80093809D01*
X113093809Y-80046190D01*
X112903333Y-79998571D01*
X112808095Y-79950952D01*
X112760476Y-79903333D01*
X112712857Y-79808095D01*
X112712857Y-79712857D01*
X112760476Y-79617619D01*
X112808095Y-79570000D01*
X112903333Y-79522380D01*
X113141428Y-79522380D01*
X113284285Y-79570000D01*
X114093809Y-80474761D02*
X113998571Y-80522380D01*
X113808095Y-80522380D01*
X113712857Y-80474761D01*
X113665238Y-80379523D01*
X113665238Y-79998571D01*
X113712857Y-79903333D01*
X113808095Y-79855714D01*
X113998571Y-79855714D01*
X114093809Y-79903333D01*
X114141428Y-79998571D01*
X114141428Y-80093809D01*
X113665238Y-80189047D01*
X114570000Y-80522380D02*
X114570000Y-79855714D01*
X114570000Y-80046190D02*
X114617619Y-79950952D01*
X114665238Y-79903333D01*
X114760476Y-79855714D01*
X114855714Y-79855714D01*
X115093809Y-79855714D02*
X115331904Y-80522380D01*
X115570000Y-79855714D01*
X116093809Y-80522380D02*
X115998571Y-80474761D01*
X115950952Y-80427142D01*
X115903333Y-80331904D01*
X115903333Y-80046190D01*
X115950952Y-79950952D01*
X115998571Y-79903333D01*
X116093809Y-79855714D01*
X116236666Y-79855714D01*
X116331904Y-79903333D01*
X116379523Y-79950952D01*
X116427142Y-80046190D01*
X116427142Y-80331904D01*
X116379523Y-80427142D01*
X116331904Y-80474761D01*
X116236666Y-80522380D01*
X116093809Y-80522380D01*
%TO.C,J1*%
X129071364Y-65652380D02*
X129071364Y-66366666D01*
X129023745Y-66509523D01*
X128928507Y-66604761D01*
X128785650Y-66652380D01*
X128690412Y-66652380D01*
X130071364Y-66652380D02*
X129499936Y-66652380D01*
X129785650Y-66652380D02*
X129785650Y-65652380D01*
X129690412Y-65795238D01*
X129595174Y-65890476D01*
X129499936Y-65938095D01*
%TD*%
%LPC*%
D12*
%TO.C,REF\u002A\u002A*%
X115000000Y-120000000D03*
%TD*%
%TO.C,REF\u002A\u002A*%
X145000000Y-120000000D03*
%TD*%
%TO.C,REF\u002A\u002A*%
X115000000Y-65000000D03*
%TD*%
%TO.C,REF\u002A\u002A*%
X145000000Y-65000000D03*
%TD*%
D13*
%TO.C,U1*%
X140970000Y-107950000D03*
D14*
X140970000Y-110490000D03*
D13*
X140970000Y-105410000D03*
X140970000Y-102870000D03*
X140970000Y-100330000D03*
X140970000Y-97790000D03*
X140970000Y-95250000D03*
X140970000Y-92710000D03*
X118110000Y-92710000D03*
X118110000Y-95250000D03*
X118110000Y-97790000D03*
X118110000Y-100330000D03*
X118110000Y-102870000D03*
X118110000Y-105410000D03*
X118110000Y-107950000D03*
X118110000Y-110490000D03*
%TD*%
%TO.C,R1*%
G36*
G01*
X144789999Y-83490000D02*
X145690001Y-83490000D01*
G75*
G02*
X145940000Y-83739999I0J-249999D01*
G01*
X145940000Y-84440001D01*
G75*
G02*
X145690001Y-84690000I-249999J0D01*
G01*
X144789999Y-84690000D01*
G75*
G02*
X144540000Y-84440001I0J249999D01*
G01*
X144540000Y-83739999D01*
G75*
G02*
X144789999Y-83490000I249999J0D01*
G01*
G37*
G36*
G01*
X144789999Y-85490000D02*
X145690001Y-85490000D01*
G75*
G02*
X145940000Y-85739999I0J-249999D01*
G01*
X145940000Y-86440001D01*
G75*
G02*
X145690001Y-86690000I-249999J0D01*
G01*
X144789999Y-86690000D01*
G75*
G02*
X144540000Y-86440001I0J249999D01*
G01*
X144540000Y-85739999D01*
G75*
G02*
X144789999Y-85490000I249999J0D01*
G01*
G37*
%TD*%
%TO.C,D1*%
G36*
G01*
X144490000Y-74080000D02*
X145990000Y-74080000D01*
G75*
G02*
X146240000Y-74330000I0J-250000D01*
G01*
X146240000Y-75530000D01*
G75*
G02*
X145990000Y-75780000I-250000J0D01*
G01*
X144490000Y-75780000D01*
G75*
G02*
X144240000Y-75530000I0J250000D01*
G01*
X144240000Y-74330000D01*
G75*
G02*
X144490000Y-74080000I250000J0D01*
G01*
G37*
D15*
X145240000Y-77430000D03*
D16*
X143240000Y-73330000D03*
%TD*%
D17*
%TO.C,C1*%
X130810000Y-76200000D03*
D18*
X128310000Y-76200000D03*
%TD*%
D19*
%TO.C,J2*%
X114570000Y-77740000D03*
X114570000Y-75200000D03*
D20*
X114570000Y-72660000D03*
%TD*%
D21*
%TO.C,J1*%
X130704698Y-64360000D03*
X130054698Y-64360000D03*
X129404698Y-64360000D03*
X128754698Y-64360000D03*
X128104698Y-64360000D03*
D22*
X131892198Y-64275000D03*
X126917198Y-64275000D03*
D23*
X132779698Y-61700000D03*
X126029698Y-61700000D03*
D24*
X130554698Y-61700000D03*
D25*
X127854698Y-61700000D03*
%TD*%
M02*
