%TF.GenerationSoftware,KiCad,Pcbnew,(5.1.10)-1*%
%TF.CreationDate,2021-09-02T21:54:32+08:00*%
%TF.ProjectId,wemos_board,77656d6f-735f-4626-9f61-72642e6b6963,rev?*%
%TF.SameCoordinates,Original*%
%TF.FileFunction,Soldermask,Top*%
%TF.FilePolarity,Negative*%
%FSLAX46Y46*%
G04 Gerber Fmt 4.6, Leading zero omitted, Abs format (unit mm)*
G04 Created by KiCad (PCBNEW (5.1.10)-1) date 2021-09-02 21:54:32*
%MOMM*%
%LPD*%
G01*
G04 APERTURE LIST*
%ADD10C,3.200000*%
%ADD11O,2.000000X1.600000*%
%ADD12R,2.000000X2.000000*%
%ADD13O,2.000000X1.700000*%
%ADD14C,1.200000*%
%ADD15R,1.600000X1.600000*%
%ADD16C,1.600000*%
%ADD17O,1.700000X1.700000*%
%ADD18R,1.700000X1.700000*%
%ADD19R,0.450000X1.380000*%
%ADD20R,1.425000X1.550000*%
%ADD21R,1.650000X1.300000*%
%ADD22R,1.800000X1.900000*%
%ADD23R,1.000000X1.900000*%
G04 APERTURE END LIST*
D10*
%TO.C,REF\u002A\u002A*%
X115000000Y-120000000D03*
%TD*%
%TO.C,REF\u002A\u002A*%
X145000000Y-120000000D03*
%TD*%
%TO.C,REF\u002A\u002A*%
X115000000Y-65000000D03*
%TD*%
%TO.C,REF\u002A\u002A*%
X145000000Y-65000000D03*
%TD*%
D11*
%TO.C,U1*%
X140970000Y-107950000D03*
D12*
X140970000Y-110490000D03*
D11*
X140970000Y-105410000D03*
X140970000Y-102870000D03*
X140970000Y-100330000D03*
X140970000Y-97790000D03*
X140970000Y-95250000D03*
X140970000Y-92710000D03*
X118110000Y-92710000D03*
X118110000Y-95250000D03*
X118110000Y-97790000D03*
X118110000Y-100330000D03*
X118110000Y-102870000D03*
X118110000Y-105410000D03*
X118110000Y-107950000D03*
X118110000Y-110490000D03*
%TD*%
%TO.C,R1*%
G36*
G01*
X144789999Y-83490000D02*
X145690001Y-83490000D01*
G75*
G02*
X145940000Y-83739999I0J-249999D01*
G01*
X145940000Y-84440001D01*
G75*
G02*
X145690001Y-84690000I-249999J0D01*
G01*
X144789999Y-84690000D01*
G75*
G02*
X144540000Y-84440001I0J249999D01*
G01*
X144540000Y-83739999D01*
G75*
G02*
X144789999Y-83490000I249999J0D01*
G01*
G37*
G36*
G01*
X144789999Y-85490000D02*
X145690001Y-85490000D01*
G75*
G02*
X145940000Y-85739999I0J-249999D01*
G01*
X145940000Y-86440001D01*
G75*
G02*
X145690001Y-86690000I-249999J0D01*
G01*
X144789999Y-86690000D01*
G75*
G02*
X144540000Y-86440001I0J249999D01*
G01*
X144540000Y-85739999D01*
G75*
G02*
X144789999Y-85490000I249999J0D01*
G01*
G37*
%TD*%
%TO.C,D1*%
G36*
G01*
X144490000Y-74080000D02*
X145990000Y-74080000D01*
G75*
G02*
X146240000Y-74330000I0J-250000D01*
G01*
X146240000Y-75530000D01*
G75*
G02*
X145990000Y-75780000I-250000J0D01*
G01*
X144490000Y-75780000D01*
G75*
G02*
X144240000Y-75530000I0J250000D01*
G01*
X144240000Y-74330000D01*
G75*
G02*
X144490000Y-74080000I250000J0D01*
G01*
G37*
D13*
X145240000Y-77430000D03*
D14*
X143240000Y-73330000D03*
%TD*%
D15*
%TO.C,C1*%
X130810000Y-76200000D03*
D16*
X128310000Y-76200000D03*
%TD*%
D17*
%TO.C,J2*%
X114570000Y-77740000D03*
X114570000Y-75200000D03*
D18*
X114570000Y-72660000D03*
%TD*%
D19*
%TO.C,J1*%
X130704698Y-64360000D03*
X130054698Y-64360000D03*
X129404698Y-64360000D03*
X128754698Y-64360000D03*
X128104698Y-64360000D03*
D20*
X131892198Y-64275000D03*
X126917198Y-64275000D03*
D21*
X132779698Y-61700000D03*
X126029698Y-61700000D03*
D22*
X130554698Y-61700000D03*
D23*
X127854698Y-61700000D03*
%TD*%
M02*
