%TF.GenerationSoftware,KiCad,Pcbnew,(5.1.10)-1*%
%TF.CreationDate,2021-09-02T21:54:32+08:00*%
%TF.ProjectId,wemos_board,77656d6f-735f-4626-9f61-72642e6b6963,rev?*%
%TF.SameCoordinates,Original*%
%TF.FileFunction,Soldermask,Bot*%
%TF.FilePolarity,Negative*%
%FSLAX46Y46*%
G04 Gerber Fmt 4.6, Leading zero omitted, Abs format (unit mm)*
G04 Created by KiCad (PCBNEW (5.1.10)-1) date 2021-09-02 21:54:32*
%MOMM*%
%LPD*%
G01*
G04 APERTURE LIST*
%ADD10C,0.150000*%
%ADD11C,3.200000*%
%ADD12O,2.000000X1.600000*%
%ADD13R,2.000000X2.000000*%
%ADD14O,2.000000X1.700000*%
%ADD15C,1.200000*%
%ADD16R,1.600000X1.600000*%
%ADD17C,1.600000*%
%ADD18O,1.700000X1.700000*%
%ADD19R,1.700000X1.700000*%
G04 APERTURE END LIST*
D10*
X134159047Y-120178580D02*
X134159047Y-120892866D01*
X134206666Y-121035723D01*
X134301904Y-121130961D01*
X134444761Y-121178580D01*
X134540000Y-121178580D01*
X133206666Y-121178580D02*
X133682857Y-121178580D01*
X133682857Y-120178580D01*
X132301904Y-121083342D02*
X132349523Y-121130961D01*
X132492380Y-121178580D01*
X132587619Y-121178580D01*
X132730476Y-121130961D01*
X132825714Y-121035723D01*
X132873333Y-120940485D01*
X132920952Y-120750009D01*
X132920952Y-120607152D01*
X132873333Y-120416676D01*
X132825714Y-120321438D01*
X132730476Y-120226200D01*
X132587619Y-120178580D01*
X132492380Y-120178580D01*
X132349523Y-120226200D01*
X132301904Y-120273819D01*
X131587619Y-120178580D02*
X131587619Y-120892866D01*
X131635238Y-121035723D01*
X131730476Y-121130961D01*
X131873333Y-121178580D01*
X131968571Y-121178580D01*
X130635238Y-121178580D02*
X131111428Y-121178580D01*
X131111428Y-120178580D01*
X129730476Y-121083342D02*
X129778095Y-121130961D01*
X129920952Y-121178580D01*
X130016190Y-121178580D01*
X130159047Y-121130961D01*
X130254285Y-121035723D01*
X130301904Y-120940485D01*
X130349523Y-120750009D01*
X130349523Y-120607152D01*
X130301904Y-120416676D01*
X130254285Y-120321438D01*
X130159047Y-120226200D01*
X130016190Y-120178580D01*
X129920952Y-120178580D01*
X129778095Y-120226200D01*
X129730476Y-120273819D01*
X129016190Y-120178580D02*
X129016190Y-120892866D01*
X129063809Y-121035723D01*
X129159047Y-121130961D01*
X129301904Y-121178580D01*
X129397142Y-121178580D01*
X128063809Y-121178580D02*
X128540000Y-121178580D01*
X128540000Y-120178580D01*
X127159047Y-121083342D02*
X127206666Y-121130961D01*
X127349523Y-121178580D01*
X127444761Y-121178580D01*
X127587619Y-121130961D01*
X127682857Y-121035723D01*
X127730476Y-120940485D01*
X127778095Y-120750009D01*
X127778095Y-120607152D01*
X127730476Y-120416676D01*
X127682857Y-120321438D01*
X127587619Y-120226200D01*
X127444761Y-120178580D01*
X127349523Y-120178580D01*
X127206666Y-120226200D01*
X127159047Y-120273819D01*
X126444761Y-120178580D02*
X126444761Y-120892866D01*
X126492380Y-121035723D01*
X126587619Y-121130961D01*
X126730476Y-121178580D01*
X126825714Y-121178580D01*
X125492380Y-121178580D02*
X125968571Y-121178580D01*
X125968571Y-120178580D01*
X124587619Y-121083342D02*
X124635238Y-121130961D01*
X124778095Y-121178580D01*
X124873333Y-121178580D01*
X125016190Y-121130961D01*
X125111428Y-121035723D01*
X125159047Y-120940485D01*
X125206666Y-120750009D01*
X125206666Y-120607152D01*
X125159047Y-120416676D01*
X125111428Y-120321438D01*
X125016190Y-120226200D01*
X124873333Y-120178580D01*
X124778095Y-120178580D01*
X124635238Y-120226200D01*
X124587619Y-120273819D01*
D11*
%TO.C,REF\u002A\u002A*%
X115000000Y-120000000D03*
%TD*%
%TO.C,REF\u002A\u002A*%
X145000000Y-120000000D03*
%TD*%
%TO.C,REF\u002A\u002A*%
X115000000Y-65000000D03*
%TD*%
%TO.C,REF\u002A\u002A*%
X145000000Y-65000000D03*
%TD*%
D12*
%TO.C,U1*%
X140970000Y-107950000D03*
D13*
X140970000Y-110490000D03*
D12*
X140970000Y-105410000D03*
X140970000Y-102870000D03*
X140970000Y-100330000D03*
X140970000Y-97790000D03*
X140970000Y-95250000D03*
X140970000Y-92710000D03*
X118110000Y-92710000D03*
X118110000Y-95250000D03*
X118110000Y-97790000D03*
X118110000Y-100330000D03*
X118110000Y-102870000D03*
X118110000Y-105410000D03*
X118110000Y-107950000D03*
X118110000Y-110490000D03*
%TD*%
%TO.C,D1*%
G36*
G01*
X144490000Y-74080000D02*
X145990000Y-74080000D01*
G75*
G02*
X146240000Y-74330000I0J-250000D01*
G01*
X146240000Y-75530000D01*
G75*
G02*
X145990000Y-75780000I-250000J0D01*
G01*
X144490000Y-75780000D01*
G75*
G02*
X144240000Y-75530000I0J250000D01*
G01*
X144240000Y-74330000D01*
G75*
G02*
X144490000Y-74080000I250000J0D01*
G01*
G37*
D14*
X145240000Y-77430000D03*
D15*
X143240000Y-73330000D03*
%TD*%
D16*
%TO.C,C1*%
X130810000Y-76200000D03*
D17*
X128310000Y-76200000D03*
%TD*%
D18*
%TO.C,J2*%
X114570000Y-77740000D03*
X114570000Y-75200000D03*
D19*
X114570000Y-72660000D03*
%TD*%
M02*
